<?xml version="1.0" encoding="utf-8"?>
<svg viewBox="123.1 41.9 402.2 402.2" xmlns="http://www.w3.org/2000/svg">
  <g transform="matrix(1, 0, 0, 1, 46.600006, -0.000015)">
    <path fill="#ffcd05" d="M388.8 156a91 91 0 1 1-182.4 0 91 91 0 1 1 182.4 0z"/>
    <path fill="#25438e" d="M315.6 172.5h-.3c-.7.2-1.4.3-2.2.2h-.2c-.7 0-1.4-.1-2-.3-.1 0-.3-.1-.4-.1-.7-.1-1.3-.3-2-.5-.3-.1-.5-.2-.7-.3-.7-.3-1.5-.6-2.2-1l-2-1.2-1-.8-.7-.6a22 22 0 0 1-2-2.3c-.1-.3-.3-.5-.4-.8-.3-.5-.6-1-.7-1.6-.3-1-.5-2-.4-3-1.4-1.4-2-2.7-2.5-4-.1-.4-.1-.7-.2-1 0-.6 0-1.3.2-2 .1-.4.2-.8.5-1.2 4-6.7 21.3-10.7 37.4-6.6 11.8-10.6 3.3-33.6 2-27.4-9.3 21.8-36.5 3.5-44.8 22.6-26 4-46 22.3-20.6 45C238 187.6 228 238 219 250c-8.7 11.3-20.6 37.5 2 63-.2-4.3 2-30.6 34.8-38 34.5-8.3 70-67.2 40.5-87-6-11.6 13-11 19.3-15.6z"/>
    <path fill="#d4602a" d="M255 275.2c3 5.4 16 8.7 6.3 17.8 0 0 5.3.2 7.4-4.3 0 0 2 3.6-4 13.6 0 0 7.3-4 8.5-9 0 0 2.8 3.5 2.2 8.6 8.2-14.4-.3-17.6-14-28.6l-6.3 2m-45.7-5.6c-26.7 5.4-59.8 31-79 67.3 0 0 18.3 2.2 43.8-28.2a140 140 0 0 1 20.6-19.5C175 307.7 154.3 334.7 146 372c7 8.5 41-49.5 52.6-67.4-16.3 23-32.7 57-31.3 99.5 8.3 5.8 26.4-52 32.3-74a157 157 0 0 0-1.4 92.7c9.8 3 12.3-56 12.6-79.3-.6 28.4 5 66.2 30.8 100.6 12.2-9.6-30.5-113.3-21-131-13.4-15.2-13.7-31-11.4-43.2"/>
    <g fill="#25438e">
      <path d="M430 232c3.3-6.4-51-1-66.6-.4 29.3-2.7 58.8-12.4 68.7-39-12-4.7-37 12-59.5 20.2 23.8-10.7 43.8-27.2 42.2-52.2-4.2-6.5-41 30.7-54 39.3-7 17.3-27.2 21.5-44 21 14.3 5.4 34.7-6 47-.2-13.6 18.6-36.4 13-51.8 6 12 10.4 34.7 6 46.7 15.6-13.3 10.2-30.8 5.4-43-4 5.4 7.7 36.6 20.3 35 25.5 22 9 47.3 12.4 72.4 0 4.8-6.2-53.5-12.6-68-16.6 26.5 5.2 55 4 74.8-15.4zm-91.5 47.2c-19.7 1.3-30-13.8-35.7-28.5 1.2 9.6 12 33.5 7.5 34.2a40 40 0 0 1-17.2-35.9c-.3 8.4-1.7 28-7.4 27.7 5.5 21.6 20 42.4 55.4 46.4 4 .6-4.5-16.6-17-28 13 9.5 29.6 15.6 51.6 14.3 5.8-2.4-21.3-21.6-37.3-30z"/>
      <path d="M350.8 264.3c-17.4 6-31.8-6-40-17.6 3.5 8.7 31 27.8 28 32.3 18 11 40.2 17.4 66 10.8 6.3-3.4-36.8-19-53.8-25.5z"/>
    </g>
    <path fill="#d4602a" d="M362.5 195.5c-10.4-.6-37 22.2-55.6 19.6-2.3 16-13 34-27.2 46.5 5.8 32 13.8 8 13.5-12.7-.8 20.8 2 28.4 17.2 36 4.7-.4-6.7-26.4-7.5-34 5 14 16 30 35.8 28.5 3.2-4.4-24.5-23.7-28-32.4 8.3 11.3 22.6 23.7 40 17.5 2-5-29.8-18-35.2-25.7 12 8.7 28 14.8 43 4-3-7.8-37-6.2-46.7-15.7 15.8 7.7 39.6 12.6 53.2-6-5.5-6.8-39 3-48.3.3 17 .7 40.2-3 45.6-25.6"/>
    <path fill="#25438e" d="M209.4 244.7c-6.3-.1-12.7-1.4-18.2-4.5l2.3-.2c.3-5.4 25-9 27.8-11-12.8 4.4-26.6 3.7-36.4-7 6-5.8 33 .7 42.3-4-15.2 3-33.5 2-42.7-15.2h.1c9.2-3.5 28.3 7.5 38 7.3 11.7-.2-31.4-2.2-32.3-31.5 13.8 2.2 24.7 21.4 39 24-15-7.5-29.5-22-25-40.5.1 0 .2.1.2.1 11.4 5.2 16.6 26.8 28 33.2-12.7-13-7-35.2-11.8-50-14-45.3-3.5-86.3-28-103.5-7.3 35.7-3.6 68.3 4.6 96-9.4-37.6-39.2-58.3-37-54a170 170 0 0 0 19.9 64.3c-74.6-82.3-24.4 10.8.6 33.5-28-23.8-56-23.6-54.2-21.8a161 161 0 0 0 42.5 35.4c-32-12-46-3.4-46-3.4a154 154 0 0 0 48.8 22c-26-1.6-35.5 7.3-35.5 7.3a165 165 0 0 0 47.4 12.7c-28.5 3-36 14.3-36 14.3a140 140 0 0 0 64.9-3l-3.8-.2z"/>
    <path fill="#fff" d="M286 159.3c0 .1-.1-.1 0 0-6.5-9.7-11 6.5-17.8 3.5 2.4 3.6 6.8 0 8.7-2.5 1.3 5 8.7.5 4.7-3 1.6-.2 3.2.7 4.4 2-.1-.1-.1-.1 0 0-.1-.1-.1-.1 0 0-.1-.1-.1-.1 0 0-.1 0-.1 0 0 0"/>
    <path fill="#d4602a" d="M355.3 169c-8-1-33.3-3.5-38.6 2.8-4 3.3-19-2.2-18.6-11.7-17.4-16.5 51-30.8 63 10.3 0 0-25.7-20.5-47.7-13.8 0 0 18.8-1.8 41.8 12.4M336 117.3c-4.6 11-26 10.6-37 13.5-10.4 2.8-9 9-9 9 0 2.6 3 5.5 6.2 4.8 2.6-.6 5-2.2 4.8-4.8 0-1.4-.7-2.6-1.7-3.5h.1c7-5.4 14-1 14-1a3 3 0 1 0 6 0c0-1.7-1.3-3-3-3C337 128 336 117 336 117zm-85.6 90c-16.6-13-20.4-56.8-27.4-67.5-17 18.2.5 45.7 10 55.2-9.5-5-23.5-36.3-29.4-34.8-4.6 22.3 14 37 26 42-11.7-1.6-33.6-28.5-40.3-24.7 1.8 21 19 29 35.2 31.8-10.3 1.4-37.8-12.6-41.2-7.6 9.2 17.3 27.5 19.8 44 16-9.2 4.6-40.8-1.5-42.5 4 10.8 11.6 24.5 11.3 36.7 7.2-7 2.6-33 7.8-30.4 11.2 15.8 9.4 40.2 3.3 51.4-6.3a36 36 0 0 1 7.7-26.6"/>
    <path fill="#d45e2a" d="M251 304.4c15.5-19.7-21-22.5-12.7-35.2 7-8.4 1.4-9.8 1.4-9.8-7-2.8-15.5 15.5-8.4 21 2.8 4.2 14 8.4 5.6 15.5 0 0 4.2 0 7-5.6 0 0 0 7-4.2 14 0 0 7-1.4 8.4-9.8.1 1.3 4.3 4 3 9.7"/>
  </g>
</svg>